<?xml version="1.0" standalone="no"?>
<!DOCTYPE svg PUBLIC "-//W3C//DTD SVG 20010904//EN"
 "http://www.w3.org/TR/2001/REC-SVG-20010904/DTD/svg10.dtd">
<svg version="1.0" xmlns="http://www.w3.org/2000/svg"
 width="1200.000000pt" height="1200.000000pt" viewBox="0 0 1200.000000 1200.000000"
 preserveAspectRatio="xMidYMid meet">
<metadata>
Created by potrace 1.14, written by Peter Selinger 2001-2017
</metadata>
<g transform="translate(0.000000,1200.000000) scale(0.100000,-0.100000)"
fill="#000000" stroke="none">
<path d="M0 6000 l0 -6000 6000 0 6000 0 0 6000 0 6000 -6000 0 -6000 0 0
-6000z m6165 3930 c818 -77 1550 -513 2002 -1195 165 -248 281 -511 363 -819
109 -410 109 -916 0 -1331 -98 -372 -268 -716 -497 -1005 -102 -129 -354 -374
-483 -471 -511 -383 -1087 -566 -1715 -546 -509 17 -987 171 -1405 452 -615
414 -1034 1057 -1155 1772 -101 594 -6 1199 271 1723 168 316 424 624 710 852
368 293 878 506 1334 557 52 6 109 13 125 15 69 8 348 5 450 -4z m-1225 -6360
l0 -470 -130 0 -130 0 0 470 0 470 130 0 130 0 0 -470z m880 365 l0 -105 -125
0 -125 0 0 -365 0 -365 -125 0 -125 0 0 365 0 365 -125 0 -125 0 0 105 0 105
375 0 375 0 0 -105z m559 73 c38 -119 271 -892 271 -899 0 -5 -60 -9 -133 -9
l-134 0 -22 100 -22 100 -128 0 -128 0 -22 -100 -22 -100 -130 0 c-71 0 -129
3 -129 6 0 3 63 212 140 464 77 253 140 462 140 465 0 3 69 5 154 5 l154 0 11
-32z m794 -207 c109 -54 107 -49 46 -130 -30 -39 -57 -71 -61 -71 -4 0 -28 11
-54 25 -55 29 -124 34 -145 9 -22 -26 1 -46 101 -86 143 -58 192 -105 206
-196 34 -229 -273 -350 -531 -208 -33 18 -59 37 -57 42 1 5 25 41 53 80 l51
72 64 -34 c100 -52 198 -44 179 15 -4 12 -33 30 -85 51 -148 60 -212 117 -226
205 -11 76 30 171 93 212 96 63 256 69 366 14z"/>
<path d="M5700 9814 c-241 -29 -352 -50 -517 -100 -413 -125 -772 -341 -1078
-648 -468 -470 -728 -1069 -752 -1731 -21 -613 179 -1212 572 -1705 250 -315
618 -590 1007 -752 349 -145 672 -205 1058 -195 213 6 320 19 518 63 462 103
906 352 1249 701 476 484 736 1115 737 1793 0 434 -85 793 -281 1183 -198 396
-537 766 -918 1004 -307 191 -631 312 -990 369 -96 15 -522 28 -605 18z m294
-1037 c13 -13 51 -78 85 -145 71 -138 105 -174 187 -198 52 -15 64 -15 166 1
89 14 115 14 139 4 31 -12 59 -54 59 -88 0 -10 -40 -187 -89 -393 -100 -418
-98 -405 -87 -435 14 -44 44 -28 222 117 82 68 164 129 183 137 75 32 132 -7
173 -120 25 -70 79 -131 143 -162 36 -18 61 -20 228 -20 l189 0 24 -28 c13
-15 24 -39 24 -52 0 -14 -43 -108 -95 -210 -88 -172 -95 -190 -95 -244 0 -47
5 -66 30 -102 16 -25 48 -56 72 -69 80 -45 107 -97 78 -151 -7 -11 -138 -82
-328 -175 -390 -191 -419 -214 -405 -335 6 -56 -17 -80 -84 -86 -27 -2 -203
14 -392 36 -190 23 -355 41 -368 41 l-23 0 0 -169 c0 -168 0 -170 -26 -200
-33 -39 -80 -42 -121 -7 l-28 24 -3 177 -3 177 -67 -7 c-37 -4 -200 -22 -362
-41 -334 -39 -360 -40 -400 -19 -34 18 -43 42 -34 89 9 50 -27 119 -78 154
-22 14 -167 88 -322 164 -154 76 -296 149 -313 163 -62 49 -43 93 76 178 64
46 82 75 88 143 5 59 5 60 -91 247 -53 104 -96 199 -96 212 0 37 19 72 47 84
14 7 92 11 199 11 158 0 179 2 217 21 69 35 114 85 143 163 15 38 38 80 52 93
32 29 84 39 123 22 17 -7 102 -70 188 -141 132 -108 161 -128 186 -126 24 2
31 8 33 29 2 14 -38 203 -88 420 -56 244 -89 404 -85 419 4 14 16 35 27 48 26
27 91 29 188 6 108 -25 195 -1 259 71 17 20 56 85 86 146 31 60 64 118 75 129
27 27 66 25 94 -3z"/>
<path d="M6208 3824 c-3 -5 -11 -36 -18 -69 -6 -33 -20 -94 -30 -135 -10 -41
-21 -87 -24 -102 l-6 -28 80 0 c58 0 80 3 79 13 -1 32 -76 329 -81 321z"/>
</g>
</svg>
